{
    "asset" : {
        "generator" : "Khronos glTF Blender I/O v1.4.40",
        "version" : "2.0"
    },
    "scene" : 0,
    "scenes" : [
        {
            "name" : "Scene",
            "nodes" : [
                0,
                1,
                2
            ]
        }
    ],
    "nodes" : [
        {
            "name" : "Light",
            "rotation" : [
                0.16907575726509094,
                0.7558803558349609,
                -0.27217137813568115,
                0.570947527885437
            ],
            "translation" : [
                4.076245307922363,
                5.903861999511719,
                -1.0054539442062378
            ]
        },
        {
            "name" : "Camera",
            "rotation" : [
                0.483536034822464,
                0.33687159419059753,
                -0.20870360732078552,
                0.7804827094078064
            ],
            "translation" : [
                7.358891487121582,
                4.958309173583984,
                6.925790786743164
            ]
        },
        {
            "mesh" : 0,
            "name" : "BalloonObject",
            "rotation" : [
                -0.3597969710826874,
                0.36322060227394104,
                -0.6048231720924377,
                0.6105782985687256
            ],
            "translation" : [
                -0.010276839137077332,
                -3.418334722518921,
                0.00936773419380188
            ]
        }
    ],
    "materials" : [
        {
            "doubleSided" : true,
            "name" : "Material.001",
            "pbrMetallicRoughness" : {
                "baseColorFactor" : [
                    0.11815524101257324,
                    0,
                    0.8000000715255737,
                    0.41718506813049316
                ],
                "metallicFactor" : 0,
                "roughnessFactor" : 0.24169743061065674
            }
        }
    ],
    "meshes" : [
        {
            "name" : "NurbsPath",
            "primitives" : [
                {
                    "attributes" : {
                        "POSITION" : 0,
                        "NORMAL" : 1,
                        "TEXCOORD_0" : 2
                    },
                    "indices" : 3,
                    "material" : 0
                }
            ]
        }
    ],
    "accessors" : [
        {
            "bufferView" : 0,
            "componentType" : 5126,
            "count" : 3058,
            "max" : [
                2.0276994705200195,
                1.041276216506958,
                1.0003734827041626
            ],
            "min" : [
                -4.4180121421813965,
                -0.9502601027488708,
                -0.9912517666816711
            ],
            "type" : "VEC3"
        },
        {
            "bufferView" : 1,
            "componentType" : 5126,
            "count" : 3058,
            "type" : "VEC3"
        },
        {
            "bufferView" : 2,
            "componentType" : 5126,
            "count" : 3058,
            "type" : "VEC2"
        },
        {
            "bufferView" : 3,
            "componentType" : 5123,
            "count" : 7032,
            "type" : "SCALAR"
        }
    ],
    "bufferViews" : [
        {
            "buffer" : 0,
            "byteLength" : 36696,
            "byteOffset" : 0
        },
        {
            "buffer" : 0,
            "byteLength" : 36696,
            "byteOffset" : 36696
        },
        {
            "buffer" : 0,
            "byteLength" : 24464,
            "byteOffset" : 73392
        },
        {
            "buffer" : 0,
            "byteLength" : 14064,
            "byteOffset" : 97856
        }
    ],
    "buffers" : [
        {
            "byteLength" : 111920,
            "uri" : "data:application/octet-stream;base64,"
        }
    ]
}
