{
    "asset" : {
        "generator" : "Khronos glTF Blender I/O v1.4.40",
        "version" : "2.0"
    },
    "extensionsUsed" : [
        "KHR_materials_clearcoat"
    ],
    "scene" : 0,
    "scenes" : [
        {
            "name" : "Scene",
            "nodes" : [
                0
            ]
        }
    ],
    "nodes" : [
        {
            "mesh" : 0,
            "name" : "Cylinder.002",
            "scale" : [
                -0.07233680784702301,
                -0.07233680784702301,
                -0.07233680784702301
            ],
            "translation" : [
                0.9532103538513184,
                5.15502405166626,
                0.0027555376291275024
            ]
        }
    ],
    "materials" : [
        {
            "doubleSided" : true,
            "name" : "Material.009",
            "pbrMetallicRoughness" : {
                "baseColorFactor" : [
                    0.8000000715255737,
                    0.17008769512176514,
                    0,
                    1
                ],
                "roughnessFactor" : 0.5
            }
        },
        {
            "doubleSided" : true,
            "extensions" : {
                "KHR_materials_clearcoat" : {
                    "clearcoatFactor" : 1,
                    "clearcoatRoughnessFactor" : 0.029999999329447746
                }
            },
            "name" : "Material.001",
            "pbrMetallicRoughness" : {
                "baseColorFactor" : [
                    0.18987219035625458,
                    0.17357784509658813,
                    0.19599132239818573,
                    1
                ],
                "metallicFactor" : 0.4015747904777527,
                "roughnessFactor" : 0.09448818862438202
            }
        },
        {
            "doubleSided" : true,
            "name" : "Material.002",
            "pbrMetallicRoughness" : {
                "baseColorFactor" : [
                    0,
                    0.0009897819254547358,
                    0.8000000715255737,
                    1
                ],
                "metallicFactor" : 0,
                "roughnessFactor" : 0.5
            }
        },
        {
            "doubleSided" : true,
            "name" : "Material.004",
            "pbrMetallicRoughness" : {
                "baseColorFactor" : [
                    8.007883297977969e-05,
                    0,
                    0.8000000715255737,
                    1
                ],
                "metallicFactor" : 0,
                "roughnessFactor" : 0.5
            }
        },
        {
            "doubleSided" : true,
            "name" : "Material.003",
            "pbrMetallicRoughness" : {
                "baseColorFactor" : [
                    0,
                    0.005597160197794437,
                    0.8000000715255737,
                    1
                ],
                "metallicFactor" : 0,
                "roughnessFactor" : 0.5
            }
        },
        {
            "doubleSided" : true,
            "name" : "Material.005",
            "pbrMetallicRoughness" : {
                "baseColorFactor" : [
                    0,
                    0.0021816184744238853,
                    0.8000000715255737,
                    1
                ],
                "metallicFactor" : 0,
                "roughnessFactor" : 0.5
            }
        },
        {
            "doubleSided" : true,
            "name" : "Material.008",
            "pbrMetallicRoughness" : {
                "baseColorFactor" : [
                    0,
                    0,
                    0,
                    1
                ],
                "metallicFactor" : 0,
                "roughnessFactor" : 0.5
            }
        },
        {
            "doubleSided" : true,
            "name" : "Material.007",
            "pbrMetallicRoughness" : {
                "baseColorFactor" : [
                    0,
                    0,
                    0,
                    1
                ],
                "metallicFactor" : 0,
                "roughnessFactor" : 0.5
            }
        },
        {
            "doubleSided" : true,
            "name" : "Material.006",
            "pbrMetallicRoughness" : {
                "baseColorFactor" : [
                    0,
                    0,
                    0,
                    1
                ],
                "metallicFactor" : 0,
                "roughnessFactor" : 0.5
            }
        },
        {
            "doubleSided" : true,
            "name" : "Material.010",
            "pbrMetallicRoughness" : {
                "baseColorFactor" : [
                    0.8000000715255737,
                    0.08961524814367294,
                    0,
                    1
                ],
                "roughnessFactor" : 0.5
            }
        },
        {
            "doubleSided" : true,
            "name" : "Material.011",
            "pbrMetallicRoughness" : {
                "baseColorFactor" : [
                    0.8000000715255737,
                    0.10718932002782822,
                    0,
                    1
                ],
                "roughnessFactor" : 0.5
            }
        }
    ],
    "meshes" : [
        {
            "name" : "Cylinder.002",
            "primitives" : [
                {
                    "attributes" : {
                        "POSITION" : 0,
                        "NORMAL" : 1,
                        "TEXCOORD_0" : 2
                    },
                    "indices" : 3,
                    "material" : 0
                },
                {
                    "attributes" : {
                        "POSITION" : 4,
                        "NORMAL" : 5,
                        "TEXCOORD_0" : 6
                    },
                    "indices" : 7,
                    "material" : 1
                },
                {
                    "attributes" : {
                        "POSITION" : 8,
                        "NORMAL" : 9,
                        "TEXCOORD_0" : 10
                    },
                    "indices" : 11,
                    "material" : 2
                },
                {
                    "attributes" : {
                        "POSITION" : 12,
                        "NORMAL" : 13,
                        "TEXCOORD_0" : 14
                    },
                    "indices" : 15,
                    "material" : 3
                },
                {
                    "attributes" : {
                        "POSITION" : 16,
                        "NORMAL" : 17,
                        "TEXCOORD_0" : 18
                    },
                    "indices" : 19,
                    "material" : 4
                },
                {
                    "attributes" : {
                        "POSITION" : 20,
                        "NORMAL" : 21,
                        "TEXCOORD_0" : 22
                    },
                    "indices" : 23,
                    "material" : 5
                },
                {
                    "attributes" : {
                        "POSITION" : 24,
                        "NORMAL" : 25,
                        "TEXCOORD_0" : 26
                    },
                    "indices" : 27,
                    "material" : 6
                },
                {
                    "attributes" : {
                        "POSITION" : 28,
                        "NORMAL" : 29,
                        "TEXCOORD_0" : 30
                    },
                    "indices" : 31,
                    "material" : 7
                },
                {
                    "attributes" : {
                        "POSITION" : 32,
                        "NORMAL" : 33,
                        "TEXCOORD_0" : 34
                    },
                    "indices" : 35,
                    "material" : 8
                },
                {
                    "attributes" : {
                        "POSITION" : 36,
                        "NORMAL" : 37,
                        "TEXCOORD_0" : 38
                    },
                    "indices" : 39,
                    "material" : 9
                },
                {
                    "attributes" : {
                        "POSITION" : 40,
                        "NORMAL" : 41,
                        "TEXCOORD_0" : 42
                    },
                    "indices" : 43,
                    "material" : 10
                }
            ]
        }
    ],
    "accessors" : [
        {
            "bufferView" : 0,
            "componentType" : 5126,
            "count" : 896,
            "max" : [
                27.359357833862305,
                57.76191711425781,
                13.949376106262207
            ],
            "min" : [
                -1,
                -1.0000077486038208,
                -14.177911758422852
            ],
            "type" : "VEC3"
        },
        {
            "bufferView" : 1,
            "componentType" : 5126,
            "count" : 896,
            "type" : "VEC3"
        },
        {
            "bufferView" : 2,
            "componentType" : 5126,
            "count" : 896,
            "type" : "VEC2"
        },
        {
            "bufferView" : 3,
            "componentType" : 5123,
            "count" : 1674,
            "type" : "SCALAR"
        },
        {
            "bufferView" : 4,
            "componentType" : 5126,
            "count" : 192,
            "max" : [
                27.00161361694336,
                49.17725372314453,
                13.86231517791748
            ],
            "min" : [
                -0.6468305587768555,
                1.241708755493164,
                -13.786128044128418
            ],
            "type" : "VEC3"
        },
        {
            "bufferView" : 5,
            "componentType" : 5126,
            "count" : 192,
            "type" : "VEC3"
        },
        {
            "bufferView" : 6,
            "componentType" : 5126,
            "count" : 192,
            "type" : "VEC2"
        },
        {
            "bufferView" : 7,
            "componentType" : 5123,
            "count" : 372,
            "type" : "SCALAR"
        },
        {
            "bufferView" : 8,
            "componentType" : 5126,
            "count" : 128,
            "max" : [
                27.00161361694336,
                1.5098447799682617,
                13.86231517791748
            ],
            "min" : [
                -0.6468305587768555,
                -26.138599395751953,
                -13.786128044128418
            ],
            "type" : "VEC3"
        },
        {
            "bufferView" : 9,
            "componentType" : 5126,
            "count" : 128,
            "type" : "VEC3"
        },
        {
            "bufferView" : 10,
            "componentType" : 5126,
            "count" : 128,
            "type" : "VEC2"
        },
        {
            "bufferView" : 11,
            "componentType" : 5123,
            "count" : 186,
            "type" : "SCALAR"
        },
        {
            "bufferView" : 12,
            "componentType" : 5126,
            "count" : 24,
            "max" : [
                23.701385498046875,
                59.96940612792969,
                24.71085548400879
            ],
            "min" : [
                2.653397560119629,
                44.93537139892578,
                9.490324974060059
            ],
            "type" : "VEC3"
        },
        {
            "bufferView" : 13,
            "componentType" : 5126,
            "count" : 24,
            "type" : "VEC3"
        },
        {
            "bufferView" : 14,
            "componentType" : 5126,
            "count" : 24,
            "type" : "VEC2"
        },
        {
            "bufferView" : 15,
            "componentType" : 5123,
            "count" : 36,
            "type" : "SCALAR"
        },
        {
            "bufferView" : 16,
            "componentType" : 5126,
            "count" : 24,
            "max" : [
                8.317525863647461,
                60.05463409423828,
                6.045211315155029
            ],
            "min" : [
                -10.361715316772461,
                45.020599365234375,
                -13.448261260986328
            ],
            "type" : "VEC3"
        },
        {
            "bufferView" : 17,
            "componentType" : 5126,
            "count" : 24,
            "type" : "VEC3"
        },
        {
            "bufferView" : 18,
            "componentType" : 5126,
            "count" : 24,
            "type" : "VEC2"
        },
        {
            "bufferView" : 19,
            "componentType" : 5123,
            "count" : 36,
            "type" : "SCALAR"
        },
        {
            "bufferView" : 20,
            "componentType" : 5126,
            "count" : 24,
            "max" : [
                34.757755279541016,
                60.03935623168945,
                4.007575988769531
            ],
            "min" : [
                15.41372299194336,
                45.00532150268555,
                -14.355033874511719
            ],
            "type" : "VEC3"
        },
        {
            "bufferView" : 21,
            "componentType" : 5126,
            "count" : 24,
            "type" : "VEC3"
        },
        {
            "bufferView" : 22,
            "componentType" : 5126,
            "count" : 24,
            "type" : "VEC2"
        },
        {
            "bufferView" : 23,
            "componentType" : 5123,
            "count" : 36,
            "type" : "SCALAR"
        },
        {
            "bufferView" : 24,
            "componentType" : 5126,
            "count" : 128,
            "max" : [
                10.024660110473633,
                53.68495559692383,
                2.6421895027160645
            ],
            "min" : [
                -2.491344928741455,
                41.168949127197266,
                -9.873815536499023
            ],
            "type" : "VEC3"
        },
        {
            "bufferView" : 25,
            "componentType" : 5126,
            "count" : 128,
            "type" : "VEC3"
        },
        {
            "bufferView" : 26,
            "componentType" : 5126,
            "count" : 128,
            "type" : "VEC2"
        },
        {
            "bufferView" : 27,
            "componentType" : 5123,
            "count" : 186,
            "type" : "SCALAR"
        },
        {
            "bufferView" : 28,
            "componentType" : 5126,
            "count" : 128,
            "max" : [
                25.51788902282715,
                53.68495559692383,
                2.1475143432617188
            ],
            "min" : [
                13.001882553100586,
                41.168949127197266,
                -10.368491172790527
            ],
            "type" : "VEC3"
        },
        {
            "bufferView" : 29,
            "componentType" : 5126,
            "count" : 128,
            "type" : "VEC3"
        },
        {
            "bufferView" : 30,
            "componentType" : 5126,
            "count" : 128,
            "type" : "VEC2"
        },
        {
            "bufferView" : 31,
            "componentType" : 5123,
            "count" : 186,
            "type" : "SCALAR"
        },
        {
            "bufferView" : 32,
            "componentType" : 5126,
            "count" : 128,
            "max" : [
                19.24217414855957,
                53.68495559692383,
                14.650922775268555
            ],
            "min" : [
                6.726169109344482,
                41.168949127197266,
                2.134917736053467
            ],
            "type" : "VEC3"
        },
        {
            "bufferView" : 33,
            "componentType" : 5126,
            "count" : 128,
            "type" : "VEC3"
        },
        {
            "bufferView" : 34,
            "componentType" : 5126,
            "count" : 128,
            "type" : "VEC2"
        },
        {
            "bufferView" : 35,
            "componentType" : 5123,
            "count" : 186,
            "type" : "SCALAR"
        },
        {
            "bufferView" : 36,
            "componentType" : 5126,
            "count" : 640,
            "max" : [
                33.78790283203125,
                58.9475212097168,
                24.2220401763916
            ],
            "min" : [
                -9.532466888427734,
                -31.050273895263672,
                -13.547113418579102
            ],
            "type" : "VEC3"
        },
        {
            "bufferView" : 37,
            "componentType" : 5126,
            "count" : 640,
            "type" : "VEC3"
        },
        {
            "bufferView" : 38,
            "componentType" : 5126,
            "count" : 640,
            "type" : "VEC2"
        },
        {
            "bufferView" : 39,
            "componentType" : 5123,
            "count" : 930,
            "type" : "SCALAR"
        },
        {
            "bufferView" : 40,
            "componentType" : 5126,
            "count" : 128,
            "max" : [
                15.38345718383789,
                57.76191711425781,
                11.183877944946289
            ],
            "min" : [
                10.097064971923828,
                52.43020248413086,
                5.89829158782959
            ],
            "type" : "VEC3"
        },
        {
            "bufferView" : 41,
            "componentType" : 5126,
            "count" : 128,
            "type" : "VEC3"
        },
        {
            "bufferView" : 42,
            "componentType" : 5126,
            "count" : 128,
            "type" : "VEC2"
        },
        {
            "bufferView" : 43,
            "componentType" : 5123,
            "count" : 186,
            "type" : "SCALAR"
        }
    ],
    "bufferViews" : [
        {
            "buffer" : 0,
            "byteLength" : 10752,
            "byteOffset" : 0
        },
        {
            "buffer" : 0,
            "byteLength" : 10752,
            "byteOffset" : 10752
        },
        {
            "buffer" : 0,
            "byteLength" : 7168,
            "byteOffset" : 21504
        },
        {
            "buffer" : 0,
            "byteLength" : 3348,
            "byteOffset" : 28672
        },
        {
            "buffer" : 0,
            "byteLength" : 2304,
            "byteOffset" : 32020
        },
        {
            "buffer" : 0,
            "byteLength" : 2304,
            "byteOffset" : 34324
        },
        {
            "buffer" : 0,
            "byteLength" : 1536,
            "byteOffset" : 36628
        },
        {
            "buffer" : 0,
            "byteLength" : 744,
            "byteOffset" : 38164
        },
        {
            "buffer" : 0,
            "byteLength" : 1536,
            "byteOffset" : 38908
        },
        {
            "buffer" : 0,
            "byteLength" : 1536,
            "byteOffset" : 40444
        },
        {
            "buffer" : 0,
            "byteLength" : 1024,
            "byteOffset" : 41980
        },
        {
            "buffer" : 0,
            "byteLength" : 372,
            "byteOffset" : 43004
        },
        {
            "buffer" : 0,
            "byteLength" : 288,
            "byteOffset" : 43376
        },
        {
            "buffer" : 0,
            "byteLength" : 288,
            "byteOffset" : 43664
        },
        {
            "buffer" : 0,
            "byteLength" : 192,
            "byteOffset" : 43952
        },
        {
            "buffer" : 0,
            "byteLength" : 72,
            "byteOffset" : 44144
        },
        {
            "buffer" : 0,
            "byteLength" : 288,
            "byteOffset" : 44216
        },
        {
            "buffer" : 0,
            "byteLength" : 288,
            "byteOffset" : 44504
        },
        {
            "buffer" : 0,
            "byteLength" : 192,
            "byteOffset" : 44792
        },
        {
            "buffer" : 0,
            "byteLength" : 72,
            "byteOffset" : 44984
        },
        {
            "buffer" : 0,
            "byteLength" : 288,
            "byteOffset" : 45056
        },
        {
            "buffer" : 0,
            "byteLength" : 288,
            "byteOffset" : 45344
        },
        {
            "buffer" : 0,
            "byteLength" : 192,
            "byteOffset" : 45632
        },
        {
            "buffer" : 0,
            "byteLength" : 72,
            "byteOffset" : 45824
        },
        {
            "buffer" : 0,
            "byteLength" : 1536,
            "byteOffset" : 45896
        },
        {
            "buffer" : 0,
            "byteLength" : 1536,
            "byteOffset" : 47432
        },
        {
            "buffer" : 0,
            "byteLength" : 1024,
            "byteOffset" : 48968
        },
        {
            "buffer" : 0,
            "byteLength" : 372,
            "byteOffset" : 49992
        },
        {
            "buffer" : 0,
            "byteLength" : 1536,
            "byteOffset" : 50364
        },
        {
            "buffer" : 0,
            "byteLength" : 1536,
            "byteOffset" : 51900
        },
        {
            "buffer" : 0,
            "byteLength" : 1024,
            "byteOffset" : 53436
        },
        {
            "buffer" : 0,
            "byteLength" : 372,
            "byteOffset" : 54460
        },
        {
            "buffer" : 0,
            "byteLength" : 1536,
            "byteOffset" : 54832
        },
        {
            "buffer" : 0,
            "byteLength" : 1536,
            "byteOffset" : 56368
        },
        {
            "buffer" : 0,
            "byteLength" : 1024,
            "byteOffset" : 57904
        },
        {
            "buffer" : 0,
            "byteLength" : 372,
            "byteOffset" : 58928
        },
        {
            "buffer" : 0,
            "byteLength" : 7680,
            "byteOffset" : 59300
        },
        {
            "buffer" : 0,
            "byteLength" : 7680,
            "byteOffset" : 66980
        },
        {
            "buffer" : 0,
            "byteLength" : 5120,
            "byteOffset" : 74660
        },
        {
            "buffer" : 0,
            "byteLength" : 1860,
            "byteOffset" : 79780
        },
        {
            "buffer" : 0,
            "byteLength" : 1536,
            "byteOffset" : 81640
        },
        {
            "buffer" : 0,
            "byteLength" : 1536,
            "byteOffset" : 83176
        },
        {
            "buffer" : 0,
            "byteLength" : 1024,
            "byteOffset" : 84712
        },
        {
            "buffer" : 0,
            "byteLength" : 372,
            "byteOffset" : 85736
        }
    ],
    "buffers" : [
        {
            "byteLength" : 86108,
            "uri" : "data:application/octet-stream;base64,"
        }
    ]
}
